<mxfile host="app.diagrams.net" modified="2021-06-07T23:25:20.654Z" agent="5.0 (Macintosh; Intel Mac OS X 10_15_7) AppleWebKit/537.36 (KHTML, like Gecko) Chrome/90.0.4430.212 Safari/537.36" etag="GFvq9gcOYFqcFST8BkpR" version="14.6.0" type="github">
  <diagram id="JYylptXItskjPRS8s5tQ" name="Page-1">
    <mxGraphModel dx="786" dy="446" grid="1" gridSize="10" guides="1" tooltips="1" connect="1" arrows="1" fold="1" page="1" pageScale="1" pageWidth="850" pageHeight="1100" math="0" shadow="0">
      <root>
        <mxCell id="0" />
        <mxCell id="1" parent="0" />
        <mxCell id="DAYWACB98tQwwMl1dbcq-2" value="Usuario" style="swimlane;fontStyle=1;align=center;verticalAlign=top;childLayout=stackLayout;horizontal=1;startSize=26;horizontalStack=0;resizeParent=1;resizeParentMax=0;resizeLast=0;collapsible=1;marginBottom=0;" vertex="1" parent="1">
          <mxGeometry x="40" y="20" width="320" height="300" as="geometry" />
        </mxCell>
        <mxCell id="DAYWACB98tQwwMl1dbcq-3" value="- nome: String&#xa;- email: String&#xa;- username: String&#xa;- senha: String&#xa;- composicao: Composicao" style="text;strokeColor=none;fillColor=none;align=left;verticalAlign=top;spacingLeft=4;spacingRight=4;overflow=hidden;rotatable=0;points=[[0,0.5],[1,0.5]];portConstraint=eastwest;" vertex="1" parent="DAYWACB98tQwwMl1dbcq-2">
          <mxGeometry y="26" width="320" height="84" as="geometry" />
        </mxCell>
        <mxCell id="DAYWACB98tQwwMl1dbcq-4" value="" style="line;strokeWidth=1;fillColor=none;align=left;verticalAlign=middle;spacingTop=-1;spacingLeft=3;spacingRight=3;rotatable=0;labelPosition=right;points=[];portConstraint=eastwest;" vertex="1" parent="DAYWACB98tQwwMl1dbcq-2">
          <mxGeometry y="110" width="320" height="8" as="geometry" />
        </mxCell>
        <mxCell id="DAYWACB98tQwwMl1dbcq-5" value="+ Usuario(String nome, String email, String username,&#xa;String senha): Usuario&#xa;+ getNome(): void&#xa;+ setNome(String nome): String&#xa;+ getEmail(): void&#xa;+ setEmail(String email): String&#xa;+ getUsername(): void&#xa;+ setUsername(String username): String&#xa;+ getSenha(): void&#xa;+ setSenha(String senha): String&#xa;+ getComposicao(): void&#xa;+ setComposicao(): Composicao" style="text;strokeColor=none;fillColor=none;align=left;verticalAlign=top;spacingLeft=4;spacingRight=4;overflow=hidden;rotatable=0;points=[[0,0.5],[1,0.5]];portConstraint=eastwest;" vertex="1" parent="DAYWACB98tQwwMl1dbcq-2">
          <mxGeometry y="118" width="320" height="182" as="geometry" />
        </mxCell>
        <mxCell id="DAYWACB98tQwwMl1dbcq-10" value="Composicao" style="swimlane;fontStyle=1;align=center;verticalAlign=top;childLayout=stackLayout;horizontal=1;startSize=26;horizontalStack=0;resizeParent=1;resizeParentMax=0;resizeLast=0;collapsible=1;marginBottom=0;" vertex="1" parent="1">
          <mxGeometry x="470" y="20" width="320" height="210" as="geometry" />
        </mxCell>
        <mxCell id="DAYWACB98tQwwMl1dbcq-11" value="- nome: String&#xa;- linkComposicao: String&#xa;- compositor: Compositor" style="text;strokeColor=none;fillColor=none;align=left;verticalAlign=top;spacingLeft=4;spacingRight=4;overflow=hidden;rotatable=0;points=[[0,0.5],[1,0.5]];portConstraint=eastwest;" vertex="1" parent="DAYWACB98tQwwMl1dbcq-10">
          <mxGeometry y="26" width="320" height="54" as="geometry" />
        </mxCell>
        <mxCell id="DAYWACB98tQwwMl1dbcq-12" value="" style="line;strokeWidth=1;fillColor=none;align=left;verticalAlign=middle;spacingTop=-1;spacingLeft=3;spacingRight=3;rotatable=0;labelPosition=right;points=[];portConstraint=eastwest;" vertex="1" parent="DAYWACB98tQwwMl1dbcq-10">
          <mxGeometry y="80" width="320" height="8" as="geometry" />
        </mxCell>
        <mxCell id="DAYWACB98tQwwMl1dbcq-13" value="+ Composicao(String nome, String linkComposicao,&#xa;Compositor compositor): Composicao&#xa;+ getNome(): void&#xa;+ setNome(): String&#xa;+ getLinkComposicao(): void&#xa;+ setLinkComposicao(): String&#xa;+ getCompositor(): void&#xa;+ setCompositor(): Compositor" style="text;strokeColor=none;fillColor=none;align=left;verticalAlign=top;spacingLeft=4;spacingRight=4;overflow=hidden;rotatable=0;points=[[0,0.5],[1,0.5]];portConstraint=eastwest;" vertex="1" parent="DAYWACB98tQwwMl1dbcq-10">
          <mxGeometry y="88" width="320" height="122" as="geometry" />
        </mxCell>
      </root>
    </mxGraphModel>
  </diagram>
</mxfile>
